<?xml version="1.0" encoding="UTF-8"?>
<!DOCTYPE svg PUBLIC "-//W3C//DTD SVG 1.1//EN" "http://www.w3.org/Graphics/SVG/1.1/DTD/svg11.dtd">
<!-- Creator: CorelDRAW 2021 (64-Bit) -->
<svg xmlns="http://www.w3.org/2000/svg" xml:space="preserve" width="4.32119in" height="1.35389in" version="1.1" style="shape-rendering:geometricPrecision; text-rendering:geometricPrecision; image-rendering:optimizeQuality; fill-rule:evenodd; clip-rule:evenodd"
viewBox="0 0 1646.63 515.91"
 xmlns:xlink="http://www.w3.org/1999/xlink"
 xmlns:xodm="http://www.corel.com/coreldraw/odm/2003">
 <defs>
  <style type="text/css">
   <![CDATA[
    .str0 {stroke:#FEFEFE;stroke-width:1.14;stroke-miterlimit:2.61313}
    .str1 {stroke:#FEFEFE;stroke-width:1.14;stroke-miterlimit:2.61313}
    .fil4 {fill:#FEFEFE}
    .fil2 {fill:#0088DC}
    .fil3 {fill:#383838}
    .fil0 {fill:#720A97}
    .fil1 {fill:#FFC90E}
    .fil5 {fill:black;fill-rule:nonzero}
   ]]>
  </style>
 </defs>
 <g id="Layer_x0020_1">
  <metadata id="CorelCorpID_0Corel-Layer"/>
  <path class="fil0" d="M125.19 45.11l79.42 -43.21c4.82,-2.62 10.24,-2.52 14.96,0.28 4.72,2.81 7.4,7.52 7.4,13.01l0 213.72c0,8.33 -6.8,15.13 -15.13,15.13l-196.71 0c-8.33,0 -15.13,-6.8 -15.13,-15.13l0 -105.74c0,-5.66 2.86,-10.51 7.82,-13.25l117.37 -64.81z"/>
  <path class="fil1" d="M353.91 45.11l-79.42 -43.21c-4.82,-2.62 -10.24,-2.52 -14.96,0.28 -4.72,2.81 -7.4,7.52 -7.4,13.01l0 213.72c0,8.33 6.8,15.13 15.13,15.13l196.71 0c8.33,0 15.13,-6.8 15.13,-15.13l0 -105.74c0,-5.66 -2.86,-10.51 -7.82,-13.25l-117.37 -64.81z"/>
  <path class="fil2" d="M125.19 470.8l79.42 43.21c4.82,2.62 10.24,2.52 14.96,-0.28 4.72,-2.8 7.4,-7.52 7.4,-13.01l0 -213.72c0,-8.34 -6.8,-15.13 -15.13,-15.13l-196.71 0c-8.33,0 -15.13,6.8 -15.13,15.13l0 105.73c0,5.66 2.86,10.51 7.82,13.25l117.37 64.81z"/>
  <path class="fil3" d="M353.91 470.8l-79.42 43.21c-4.82,2.62 -10.24,2.52 -14.96,-0.28 -4.72,-2.8 -7.4,-7.52 -7.4,-13.01l0 -213.72c0,-8.34 6.8,-15.13 15.13,-15.13l196.71 0c8.33,0 15.13,6.8 15.13,15.13l0 105.73c0,5.66 -2.86,10.51 -7.82,13.25l-117.37 64.81z"/>
  <g id="_2259314464304">
   <path class="fil4 str0" d="M89.31 139.71c0,-5.29 1.21,-9.54 3.44,-13.99 0.13,-0.26 0.23,-0.39 0.35,-0.62 0.21,-0.4 0.44,-0.79 0.68,-1.17 0.25,-0.39 0.47,-0.76 0.73,-1.13 2.76,-3.88 6.45,-7.43 10.75,-9.57 0.42,-0.21 0.8,-0.4 1.24,-0.62 3.38,-1.7 8.3,-2.79 12.04,-2.79 3.03,0 6.22,0.27 9.09,1.21 0.51,0.17 0.92,0.26 1.41,0.45 2.33,0.9 4.07,1.68 6.17,3.02 0.38,0.24 0.75,0.48 1.11,0.75 0.37,0.28 0.71,0.5 1.07,0.78 2.2,1.76 2.91,2.54 4.68,4.52 2.09,2.34 4.31,6.5 5.29,9.46 0.32,0.98 0.57,1.83 0.81,2.89 1.35,5.91 1.02,12.69 -1.58,18.16 -0.91,1.9 -2.65,4.22 -4.12,5.81 -1.56,1.69 -4.54,4.51 -5.77,6.1 -2.83,3.65 -4.19,6.14 -4.98,10.89 -0.54,3.21 0.05,5.54 -1.83,8.11 -0.22,0.3 -0.65,0.88 -1.13,0.88l-19.35 0c-0.84,0 -1.57,-1.43 -1.86,-2.07 -0.86,-1.96 -0.6,-4.34 -1.01,-6.85 -0.2,-1.21 -0.41,-2.18 -0.74,-3.27 -1.15,-3.89 -2.81,-5.92 -5.12,-8.67 -0.19,-0.22 -0.23,-0.3 -0.45,-0.52l-2.45 -2.52c-0.68,-0.68 -1.26,-1.32 -1.93,-2 -0.2,-0.2 -0.25,-0.32 -0.44,-0.52 -4.12,-4.24 -6.1,-10.1 -6.1,-16.74zm-3.56 -0.15c0,2.94 0.29,5.69 0.89,8.08 0.98,3.89 2.62,7.17 5.17,10.1 2.06,2.36 3.97,4.09 5.86,6.23 2.85,3.23 4.93,6.54 5.42,11.04l0.19 1.96c0.25,1.66 -0.1,2.91 1.13,5.47 0.56,1.17 0.9,1.69 1.79,2.59 0.64,0.65 1.81,1.39 3.06,1.39l19.65 0c1.22,0 2.36,-0.76 2.99,-1.39 0.82,-0.83 1.28,-1.5 1.81,-2.56 0.46,-0.92 0.86,-2.14 1.08,-3.29l0.35 -4.03c0.41,-2.92 1.31,-5.6 2.91,-7.99 0.32,-0.48 0.59,-0.84 0.93,-1.3l1.23 -1.51c0.11,-0.13 0.18,-0.18 0.29,-0.3 0.21,-0.22 0.29,-0.37 0.52,-0.6l4.78 -5c0.1,-0.11 0.16,-0.15 0.26,-0.26l0.78 -0.93c0.18,-0.22 0.3,-0.41 0.48,-0.63 0.54,-0.66 1.33,-1.91 1.76,-2.62 4.02,-6.71 4.37,-17.41 1.66,-25.09 -0.61,-1.73 -1.04,-2.74 -1.83,-4.32l-3.15 -5.08c-0.32,-0.42 -0.59,-0.75 -0.92,-1.16l-1.45 -1.67c-0.17,-0.19 -0.34,-0.34 -0.52,-0.52 -2.17,-2.17 -4.85,-4.3 -7.53,-5.74 -2.75,-1.47 -5.06,-2.43 -8.15,-3.2 -5.3,-1.32 -10.84,-1.32 -16.14,0 -1.46,0.36 -3.29,0.91 -4.64,1.52 -0.79,0.35 -2.14,0.91 -2.79,1.29 -2.24,1.31 -3.51,2.01 -5.57,3.7l-1.12 0.95c-0.6,0.58 -1.56,1.43 -2.07,2l-1.45 1.67c-1.22,1.49 -2.44,3.19 -3.35,4.88 -1.54,2.85 -1.82,3.59 -2.79,6.48l-0.67 2.45c-0.52,2.08 -0.84,4.84 -0.84,7.39z"/>
   <path class="fil4 str0" d="M107.48 193.99l23.29 0c0.92,0 1.69,-0.89 1.69,-1.78 0,-0.91 -0.82,-1.78 -1.76,-1.78l-23.14 0c-0.91,0 -1.71,0.8 -1.76,1.72 -0.05,0.92 0.77,1.84 1.68,1.84z"/>
   <path class="fil4 str0" d="M107.41 200.29l23.43 0c0.87,0 1.71,-0.99 1.61,-1.9 -0.1,-0.94 -0.89,-1.66 -1.9,-1.66l-22.84 0c-1.02,0 -1.79,0.71 -1.89,1.67 -0.1,0.91 0.71,1.89 1.59,1.89z"/>
   <path class="fil4 str0" d="M108.59 204.67c0,1.32 0.75,2 2.08,2l16.91 0c2.79,0 2.79,-3.63 0,-3.63l-16.91 0c-0.57,0 -1.11,0.14 -1.43,0.42 -0.3,0.26 -0.65,0.68 -0.65,1.21z"/>
   <path class="fil4 str0" d="M72.18 166.62l0 0.37c0,0.82 0.91,1.63 1.71,1.63 0.89,0 3.79,-1.94 4.87,-2.54l6.31 -3.63c1.13,-0.68 1.29,-1.95 0.49,-2.82 -1.26,-1.37 -2.85,0.14 -4.54,1.06l-6.2 3.58c-0.54,0.32 -1.91,1 -2.26,1.45 -0.19,0.23 -0.36,0.51 -0.36,0.9z"/>
   <path class="fil4 str0" d="M152.2 160.77c0,0.46 0.11,0.8 0.32,1.08 0.25,0.33 0.44,0.47 0.81,0.67l7.37 4.27c0.66,0.37 1.26,0.73 1.88,1.09 0.7,0.4 1.32,0.86 2.08,0.68 1.4,-0.32 2.19,-2.31 0.33,-3.39 -0.54,-0.32 -1,-0.6 -1.55,-0.9l-6.21 -3.58c-0.62,-0.38 -2.61,-1.64 -3.26,-1.64 -0.92,0 -1.78,0.89 -1.78,1.7z"/>
   <path class="fil4 str0" d="M66.18 140.67c0,1.06 0.79,1.85 1.85,1.85l11.57 0c2.51,0 2.31,-3.56 0.15,-3.56l-11.87 0c-0.89,0 -1.7,0.83 -1.7,1.71z"/>
   <path class="fil4 str1" d="M156.79 140.75c0,0.99 0.84,1.78 1.85,1.78l11.57 0c2.48,0 2.35,-3.56 0.15,-3.56l-11.87 0c-0.91,0 -1.71,0.86 -1.71,1.78z"/>
   <path class="fil4 str1" d="M150.86 121.24c0,1.68 1.36,2.34 2.7,1.66 0.27,-0.14 0.49,-0.27 0.76,-0.43l4.51 -2.61c0.51,-0.31 0.98,-0.58 1.5,-0.87 0.53,-0.3 0.99,-0.59 1.51,-0.87 1.07,-0.58 2.45,-1.21 2.45,-2.3l0 -0.37c0,-0.86 -1.1,-2.11 -2.7,-1.29 -1.49,0.77 -3.66,2.16 -5.26,3.04 -0.54,0.3 -0.97,0.57 -1.51,0.87l-3.02 1.73c-0.44,0.25 -0.94,0.79 -0.94,1.43z"/>
   <path class="fil4 str0" d="M73.96 115.38c0,1.74 0.79,1.73 2.4,2.71 0.52,0.31 0.98,0.58 1.5,0.87 2.02,1.13 4.91,2.93 6.77,3.91 2.32,1.22 3.8,-1.76 1.84,-3.03l-7.53 -4.34c-0.28,-0.15 -0.47,-0.29 -0.74,-0.44 -1.4,-0.78 -2.45,-1.77 -3.71,-0.7 -0.21,0.18 -0.54,0.68 -0.54,1.02z"/>
   <path class="fil4 str1" d="M145.45 94.72c0,-1.21 -1.22,-2.03 -2.32,-1.65 -0.81,0.27 -0.97,0.8 -1.36,1.46l-3.61 6.25c-0.43,0.79 -1.9,2.94 -1.88,3.72 0.05,1.61 2.06,2.39 3.14,1.1 0.26,-0.3 1.81,-3.1 2.08,-3.55 1.21,-2.01 2.41,-4.24 3.62,-6.25 0.19,-0.32 0.33,-0.61 0.33,-1.08z"/>
   <path class="fil4 str0" d="M89.55 96.03c0,0.79 0.38,1.28 0.82,2 0.35,0.58 0.68,1.21 1.03,1.79l4.14 7.13c1.37,1.72 4.07,-0.07 2.87,-2.06 -0.19,-0.32 -0.33,-0.57 -0.51,-0.89 -0.35,-0.63 -0.69,-1.16 -1.04,-1.78l-4.13 -7.15c-0.92,-1.3 -3.19,-0.66 -3.19,0.97z"/>
   <path class="fil4 str0" d="M117.34 88.88l0 11.05c0,0.89 0.87,1.71 1.78,1.71 0.91,0 1.78,-0.81 1.78,-1.71l0 -11.05c0,-2.4 -3.56,-2.4 -3.56,0z"/>
  </g>
  <g id="_2259314410016">
   <path class="fil4" d="M291.76 347.4l15.18 5.01 0.37 -0.54c0.07,-0.12 0.24,-0.4 0.32,-0.56 0.25,-0.45 0.1,-0.35 0.42,-0.84 1.29,-1.94 5.97,-1.26 6.7,-0.7 -1.22,0.89 -3.17,0.83 -4.62,1.55 -2.96,5.83 -6.59,15.64 -8.33,21.85 -1.24,4.41 -2.69,10.12 -2.06,15.19 4.64,2.22 9.36,2.93 14.01,0.06l2.06 -34.08 10.1 -2.36c-0.33,2.75 -2.88,2.35 -8.05,4.23l47.76 14.88 73.84 -23.68 -75.74 -28.47 -71.95 28.47z"/>
   <path class="fil4" d="M409.96 387.79l-0.56 -25.09 -41.27 12.74c-2.97,0.95 -2.34,0.82 -5.35,-0.12 -13.78,-4.33 -27.63,-8.49 -41.48,-12.66l0.98 26.71c10.23,21.63 69.31,19.13 87.67,-1.57z"/>
  </g>
  <g id="_2259314414768">
   <path class="fil4" d="M322.54 120.34l86.15 0 0 47.78 -86.15 0 0 -47.78zm-9.41 -5.45l0 58.67c0,2.7 0.99,3.96 3.71,3.96l97.53 0c2.72,0 3.71,-1.26 3.71,-3.96l0 -58.67c0,-1.88 -0.63,-3.71 -2.48,-3.71l-100.01 0c-1.84,0 -2.48,1.83 -2.48,3.71z"/>
   <path class="fil4" d="M356.21 185.94l18.81 0 0 4.21 -18.81 0 0 -4.21zm-53.97 -3.47c0,3.08 2.9,6.46 5.01,8.35 2.08,1.87 6.2,3.53 10.09,3.53l96.54 0c3.72,0 7.96,-1.64 9.96,-3.41 1.6,-1.41 1.85,-1.53 3.16,-3.52 0.69,-1.05 3.73,-5.7 0.49,-5.7l-123.78 0c-0.57,0 -1.49,0.28 -1.49,0.74z"/>
  </g>
  <g id="_2259314413568">
   <path class="fil4" d="M73.23 337.71c0.12,0.7 1.69,2.68 2.18,4.45 1.43,5.12 -1.84,11.94 -4.78,14.53 -5.99,5.28 -8.48,-1.74 -7.63,12.42 0.31,5.19 6.89,0.94 10.44,9.23 5.05,11.81 0.44,11.77 -0.2,15.24 -0.37,2.03 3.44,4.81 5.82,7.36 1.64,1.76 2.61,1.36 4.34,0.23 6.17,-4.02 15.74,0.58 18.42,4.9 3.1,5.01 -0.95,6.22 7.19,6.21 8.51,-0.01 5.35,0.43 7.94,-5.15 3.3,-7.11 10.03,-4.8 10.76,-9.22 0.27,-1.66 0.28,-4.93 -0.76,-5.88 -2.29,-2.09 -16.14,0.87 -24.66,-1.64 -21.67,-6.37 -25.57,-36.27 -4.73,-47.65 10.46,-5.71 26.89,-1.25 29.4,-3.55 1.04,-0.95 1.03,-4.22 0.74,-5.89 -0.73,-4.16 -7.65,-2.4 -10.79,-9.2 -0.72,-1.55 -0.74,-3.99 -1.94,-4.71 -1.07,-0.65 -4.69,-0.42 -6.29,-0.42 -7.66,-0.03 -3.94,1.49 -6.87,6.17 -2.63,4.22 -9.5,6.81 -13.43,6.59 -4.92,-0.28 -6.34,-4.45 -9.55,-1.34 -0.66,0.64 -0.92,1.08 -1.69,1.79 -0.87,0.81 -1.01,0.85 -1.62,1.55 -1.12,1.28 -2.66,2.02 -2.32,3.99z"/>
   <path class="fil4" d="M177.97 344.75c5.18,-2.42 8.52,5.03 3.68,7.59 -2.27,1.2 -4.72,0.06 -5.69,-1.69 -0.61,-1.1 -0.69,-2.54 -0.16,-3.86 0.66,-1.67 0.78,-1.38 2.18,-2.04zm-6.83 0.44c-18.29,0.3 -14.36,-2.23 -22.48,5.85 -1.39,1.39 -3.33,3.62 -4.75,4.74 -1.77,1.4 -22.48,0.76 -27.6,0.76 -3.62,-0 -6.42,-0.91 -6.55,3.02 -0.14,4.36 2.21,3.63 5.91,3.63 6.25,-0.01 24.93,0.41 28.53,-0.07 3.14,-0.42 8.12,-6.43 10.38,-8.69 2.69,-2.69 1.9,-2.58 7.05,-2.57 3.1,0.01 6.45,-0.12 9.51,0.05 1.58,1.96 1.54,2.83 3.72,4.27 5.35,3.52 13.89,0.14 13.89,-7.7 0,-4.59 -3.4,-8.06 -7.21,-8.81 -7.01,-1.38 -9.23,4.19 -10.4,5.52z"/>
   <path class="fil4" d="M156.88 368.03c2.57,-1.04 4.9,0.66 5.54,2.5 0.91,2.62 -0.77,4.94 -2.65,5.56 -5.25,1.74 -8.24,-5.9 -2.89,-8.06zm-6.97 0.66l-34.23 0c-4.97,-0.01 -7.1,-0.09 -5.5,5.92 2.34,1.31 15.84,0.73 19.45,0.73 6.81,0 13.62,0 20.42,0 3.27,8.97 17.06,6.87 17.37,-3.09 0.27,-8.56 -11.77,-14.1 -17.51,-3.57z"/>
   <path class="fil4" d="M145.37 328.97c5.55,-1.12 6.97,7.22 1.93,8.39 -6.01,1.4 -7.38,-7.29 -1.93,-8.39zm-7.07 8.74c-1.33,1.96 -2.81,3.16 -4.4,4.91 -2.3,2.53 -3.13,1.78 -7.45,1.78 -3.06,0 -6.13,0 -9.19,0 -2.47,0 -6.78,-0.9 -7.38,1.87 -1.33,6.24 3.82,4.8 13.72,4.8 2.95,0 6.3,0.15 9.2,-0.01 3.93,-0.21 6.6,-4.73 10.14,-8.28 1.28,-1.28 0.89,-0.61 3.16,-0.54 6.25,0.17 11.33,-6.53 8.2,-13.03 -4.72,-9.81 -21.36,-4.28 -16,8.52z"/>
   <path class="fil4" d="M140.81 398.24c-0.6,-2.66 1.1,-4.8 3.22,-5.24 2.44,-0.51 4.69,1.07 5.15,3.12 1.29,5.8 -7.22,7.21 -8.37,2.12zm-3.79 -5.71c-0.55,2.51 -2.89,7.15 2.06,11.47 7.52,6.55 18.6,-2.22 13.91,-11.06 -1.96,-3.7 -5.54,-5.05 -10.8,-4.5 -0.61,-0.96 -1.25,-1.69 -2.12,-2.55 -3.2,-3.2 -2.46,-5.08 -9.81,-5.06 -2.91,0.01 -17.87,-0.44 -19.29,0.34 -1.76,0.97 -2.19,6.11 1.52,6.34 3.52,0.22 17.96,-0.32 19.57,0.08 0.92,0.23 2.13,1.54 2.59,2.13 0.81,1.03 1.68,1.79 2.37,2.81z"/>
  </g>
  <path class="fil5" d="M679.13 120.22c0,-1.4 0.7,-2.1 2.1,-2.1l34.2 0c1.4,0 2.1,-0.7 2.1,-2.1l0 -23.08c0,-1.4 -0.7,-2.1 -2.1,-2.1l-103.03 0c-1.4,0 -2.1,0.7 -2.1,2.1l0 23.08c0,1.4 0.7,2.1 2.1,2.1l34.2 0c1.4,0 2.1,0.7 2.1,2.1l0 118.98c0,1.4 0.7,2.1 2.1,2.1l26.23 0c1.4,0 2.1,-0.7 2.1,-2.1l0 -118.98zm56.79 78.69l77.64 0c1.4,0 2.1,-0.7 2.1,-2.1l0 -21.82c0,-6.58 -0.94,-12.52 -2.83,-17.84 -1.89,-5.32 -4.86,-9.83 -8.92,-13.54 -4.06,-3.71 -9.23,-6.57 -15.53,-8.6 -6.29,-2.03 -13.78,-3.04 -22.45,-3.04 -6.99,0 -13.95,0.87 -20.88,2.62 -6.93,1.75 -13.15,4.79 -18.67,9.13 -5.53,4.34 -10,10.18 -13.43,17.52 -3.43,7.34 -5.14,16.61 -5.14,27.8 0,9.23 1.01,17.14 3.04,23.71 2.03,6.58 5.46,12 10.28,16.26 4.83,4.27 11.19,7.38 19.09,9.34 7.9,1.96 17.73,2.94 29.48,2.94l35.46 0c1.4,0 2.1,-0.7 2.1,-2.1l0 -21.4c0,-1.4 -0.7,-2.1 -2.1,-2.1l-49.94 0c-2.94,0 -5.74,-0.38 -8.39,-1.15 -2.66,-0.77 -4.93,-1.82 -6.82,-3.15 -1.89,-1.33 -3.39,-2.87 -4.51,-4.62 -1.12,-1.75 -1.68,-3.67 -1.68,-5.77 0,-1.4 0.7,-2.1 2.1,-2.1zm0 -24.55c-1.4,0 -2.1,-0.7 -2.1,-2.1 0,-2.66 1.05,-5.07 3.15,-7.24 2.1,-2.17 4.72,-3.99 7.87,-5.46 3.15,-1.47 6.44,-2.62 9.86,-3.46 3.43,-0.84 6.54,-1.26 9.34,-1.26 8.81,0 15.67,1.57 20.56,4.72 4.9,3.15 7.35,7.38 7.35,12.7 0,1.4 -0.7,2.1 -2.1,2.1l-53.93 0zm139.47 41.34c-8.39,0.03 -14.51,-2.2 -18.36,-6.61 -3.85,-4.41 -5.77,-10.11 -5.77,-17.1l0 -9.02c0,-7.13 1.99,-13.15 5.98,-18.05 3.99,-4.9 10.04,-7.34 18.15,-7.34l39.66 0c1.4,0 2.1,-0.7 2.1,-2.1l0 -21.4c0,-1.4 -0.7,-2.1 -2.1,-2.1l-35.46 0c-9.23,0 -17.21,1.08 -23.92,3.25 -6.72,2.17 -12.21,5.25 -16.47,9.23 -4.27,3.99 -7.41,8.81 -9.44,14.48 -2.03,5.66 -3.04,12.07 -3.04,19.2l0 17.63c0,5.32 1.12,10.67 3.36,16.05 2.24,5.39 5.46,10.28 9.65,14.69 4.2,4.41 9.3,7.97 15.32,10.7 6.02,2.73 12.89,4.31 20.58,4.28l60.94 -0.24 -0.02 -25.79 -61.15 0.24zm123.73 -40.71l0 64.21c0,1.4 0.7,2.1 2.1,2.1l21.4 0c1.4,0 2.1,-0.7 2.1,-2.1l0 -76.17c0,-4.2 -0.98,-8.18 -2.94,-11.96 -1.96,-3.78 -4.51,-7.1 -7.66,-9.97 -3.15,-2.87 -6.79,-5.11 -10.91,-6.72 -4.13,-1.61 -8.36,-2.41 -12.7,-2.41l-36.51 0 0 -39.03c0,-1.4 -0.7,-2.1 -2.1,-2.1l-21.4 0c-1.4,0 -2.1,0.7 -2.1,2.1l0 124.44 0 0.42 0 21.4c0,1.4 0.7,2.1 2.1,2.1l21.4 0c1.4,0 2.1,-0.7 2.1,-2.1l0 -72.4c0,-1.96 0.63,-3.57 1.89,-4.83 1.26,-1.26 2.83,-2.2 4.72,-2.83 1.89,-0.63 4.02,-1.05 6.4,-1.26 2.38,-0.21 4.76,-0.32 7.13,-0.32 7,0 12.91,1.36 17.73,4.09 4.83,2.73 7.24,7.17 7.24,13.33zm143.66 -41.76l0 -0.63c0,-0.7 -0.35,-1.05 -1.05,-1.05l-24.13 0c-0.84,0 -1.4,0.14 -1.68,0.42 -0.28,0.28 -0.56,0.84 -0.84,1.68l-24.76 66.52c-0.14,0.28 -0.49,1.05 -1.05,2.31 -0.56,1.26 -1.12,1.89 -1.68,1.89 -0.56,0 -1.12,-0.63 -1.68,-1.89 -0.56,-1.26 -0.91,-2.03 -1.05,-2.31l-24.34 -66.52c-0.28,-0.84 -0.56,-1.4 -0.84,-1.68 -0.28,-0.28 -0.84,-0.42 -1.68,-0.42l-24.13 0c-0.7,0 -1.05,0.35 -1.05,1.05l0 0.63 36.3 97.58c2.94,7.97 9.09,11.96 18.47,11.96 9.51,0 15.74,-3.99 18.68,-11.96l36.51 -97.58zm24.26 65.68l77.64 0c1.4,0 2.1,-0.7 2.1,-2.1l0 -21.82c0,-6.58 -0.95,-12.52 -2.83,-17.84 -1.89,-5.32 -4.86,-9.83 -8.92,-13.54 -4.06,-3.71 -9.23,-6.57 -15.53,-8.6 -6.29,-2.03 -13.78,-3.04 -22.45,-3.04 -6.99,0 -13.95,0.87 -20.88,2.62 -6.93,1.75 -13.15,4.79 -18.68,9.13 -5.53,4.34 -10,10.18 -13.43,17.52 -3.43,7.34 -5.14,16.61 -5.14,27.8 0,9.23 1.01,17.14 3.04,23.71 2.03,6.58 5.46,12 10.28,16.26 4.83,4.27 11.19,7.38 19.09,9.34 7.9,1.96 17.72,3.27 29.47,3.22l69.53 -0.32 0.01 -25.88 -84.01 0.32c-2.94,0.01 -5.74,-0.38 -8.39,-1.15 -2.66,-0.77 -4.93,-1.82 -6.82,-3.15 -1.89,-1.33 -3.39,-2.87 -4.51,-4.62 -1.12,-1.75 -1.68,-3.67 -1.68,-5.77 0,-1.4 0.7,-2.1 2.1,-2.1zm0 -24.55c-1.4,0 -2.1,-0.7 -2.1,-2.1 0,-2.66 1.05,-5.07 3.15,-7.24 2.1,-2.17 4.72,-3.99 7.87,-5.46 3.15,-1.47 6.43,-2.62 9.86,-3.46 3.43,-0.84 6.54,-1.26 9.34,-1.26 8.81,0 15.67,1.57 20.57,4.72 4.9,3.15 7.34,7.38 7.34,12.7 0,1.4 -0.7,2.1 -2.1,2.1l-53.93 0zm120.16 -42.39c-3.78,0 -7.34,0.74 -10.7,2.2 -3.36,1.47 -6.29,3.46 -8.81,5.98 -2.52,2.52 -4.51,5.46 -5.98,8.81 -1.47,3.36 -2.2,6.85 -2.2,10.49l0 79.74c0,1.4 0.7,2.1 2.1,2.1l23.5 0c1.4,0 2.1,-0.7 2.1,-2.1l0 -72.4c0,-0.84 0.21,-1.78 0.63,-2.83 0.42,-1.05 1.01,-2.03 1.78,-2.94 0.77,-0.91 1.64,-1.71 2.62,-2.41 0.98,-0.7 2.1,-1.05 3.36,-1.05l20.15 0c1.4,0 2.1,-0.7 2.1,-2.1l0 -21.4c0,-1.4 -0.7,-2.1 -2.1,-2.1l-28.54 0zm38.95 85.83l0 21.4c0,1.4 0.7,2.1 2.1,2.1l68.62 0c4.76,0 8.64,-1.19 11.65,-3.57 3.01,-2.38 5.35,-5.21 7.03,-8.5 1.68,-3.29 2.83,-6.64 3.46,-10.07 0.63,-3.43 0.94,-6.19 0.94,-8.29 0,-7.27 -0.59,-13.33 -1.78,-18.15 -1.19,-4.83 -3.01,-8.64 -5.45,-11.44 -2.45,-2.8 -5.63,-4.79 -9.55,-5.98 -3.92,-1.19 -8.6,-1.78 -14.06,-1.78l-30.64 0c-2.1,0 -3.67,-0.91 -4.72,-2.73 -1.05,-1.82 -1.57,-3.64 -1.57,-5.46 0,-1.96 0.49,-3.74 1.47,-5.35 0.98,-1.61 2.59,-2.41 4.83,-2.41l54.98 0c1.4,0 2.1,-0.7 2.1,-2.1l0 -21.4c0,-1.4 -0.7,-2.1 -2.1,-2.1l-45.33 0c-7.14,0 -13.26,0.42 -18.36,1.26 -5.11,0.84 -9.3,2.45 -12.59,4.83 -3.29,2.38 -5.74,5.74 -7.35,10.07 -1.61,4.34 -2.41,10 -2.41,17 0,4.76 0.49,9.13 1.47,13.12 0.98,3.99 2.52,7.41 4.62,10.28 2.1,2.87 4.9,5.11 8.39,6.72 3.5,1.61 7.76,2.41 12.8,2.41l32.95 0c2.8,0 4.65,0.91 5.56,2.73 0.91,1.82 1.37,3.64 1.37,5.45 0,0.98 -0.07,2.06 -0.21,3.25 -0.14,1.19 -0.53,2.27 -1.16,3.25 -0.63,0.98 -1.5,1.78 -2.62,2.41 -1.12,0.63 -2.66,0.94 -4.62,0.94l-57.71 0c-1.4,0 -2.1,0.7 -2.1,2.1zm130.44 -18.88l77.64 0c1.4,0 2.1,-0.7 2.1,-2.1l0 -21.82c0,-6.58 -0.94,-12.52 -2.83,-17.84 -1.89,-5.32 -4.86,-9.83 -8.92,-13.54 -4.06,-3.71 -9.23,-6.57 -15.53,-8.6 -6.29,-2.03 -13.78,-3.04 -22.45,-3.04 -6.99,0 -13.95,0.87 -20.88,2.62 -6.93,1.75 -13.15,4.79 -18.67,9.13 -5.53,4.34 -10,10.18 -13.43,17.52 -3.43,7.34 -5.14,16.61 -5.14,27.8 0,9.23 1.01,17.14 3.04,23.71 2.03,6.58 5.46,12 10.28,16.26 4.83,4.27 11.19,7.38 19.09,9.34 7.9,1.96 17.73,2.87 29.48,2.94l151.09 0.84c1.24,0.01 2.32,-0.43 3.2,-1.31 0.88,-0.88 1.33,-1.95 1.33,-3.19l0 -16.6c0,-2.47 -2.01,-4.49 -4.48,-4.5l-165.62 -0.84c-2.94,-0.02 -5.74,-0.38 -8.39,-1.15 -2.66,-0.77 -4.93,-1.82 -6.82,-3.15 -1.89,-1.33 -3.39,-2.87 -4.51,-4.62 -1.12,-1.75 -1.68,-3.67 -1.68,-5.77 0,-1.4 0.7,-2.1 2.1,-2.1zm0 -24.55c-1.4,0 -2.1,-0.7 -2.1,-2.1 0,-2.66 1.05,-5.07 3.15,-7.24 2.1,-2.17 4.72,-3.99 7.87,-5.46 3.15,-1.47 6.44,-2.62 9.86,-3.46 3.43,-0.84 6.54,-1.26 9.34,-1.26 8.81,0 15.67,1.57 20.56,4.72 4.9,3.15 7.35,7.38 7.35,12.7 0,1.4 -0.7,2.1 -2.1,2.1l-53.93 0zm-842.94 205.65c0,3.78 0.35,6.96 1.05,9.55 0.7,2.59 1.4,4.65 2.1,6.19 2.66,6.16 6.09,11.44 10.28,15.84 4.2,4.41 8.95,7.59 14.27,9.55 2.38,0.98 5.18,1.85 8.39,2.62 3.22,0.77 6.93,1.16 11.12,1.16l53.72 0c1.4,0 2.1,-0.7 2.1,-2.1l0 -23.08c0,-1.4 -0.7,-2.1 -2.1,-2.1l-54.35 0c-4.9,-0.42 -8.71,-2.06 -11.44,-4.93 -2.73,-2.87 -4.3,-6.75 -4.72,-11.65l0 -53.09c0,-7.27 1.33,-13.19 3.99,-17.73 2.66,-4.55 6.72,-7.38 12.17,-8.5l54.35 0c1.4,0 2.1,-0.7 2.1,-2.1l0 -23.08c0,-1.4 -0.7,-2.1 -2.1,-2.1l-55.61 0c-6.85,0 -13.29,1.4 -19.3,4.2 -6.02,2.8 -11.19,6.72 -15.53,11.75 -1.54,1.82 -3.04,3.81 -4.51,5.98 -1.47,2.17 -2.62,4.79 -3.46,7.87 -1.68,5.32 -2.52,10.98 -2.52,17l0 58.76zm222.56 -32.95c0,-5.04 -0.95,-9.48 -2.83,-13.33 -1.89,-3.85 -4.34,-7.13 -7.34,-9.86 -3.01,-2.73 -6.44,-4.79 -10.28,-6.19 -3.85,-1.4 -7.66,-2.1 -11.44,-2.1l-42.39 0c-4.48,0 -8.71,0.77 -12.69,2.31 -3.99,1.54 -7.45,3.74 -10.39,6.61 -2.94,2.87 -5.28,6.33 -7.03,10.39 -1.75,4.06 -2.62,8.6 -2.62,13.64l0 36.93c0,4.9 0.49,9.69 1.47,14.37 0.98,4.69 2.73,8.88 5.25,12.59 2.52,3.71 5.87,6.72 10.07,9.02 4.2,2.31 9.51,3.46 15.95,3.46l37.35 0c6.44,0 11.96,-0.63 16.58,-1.89 4.62,-1.26 8.43,-3.5 11.44,-6.72 3.01,-3.22 5.25,-7.56 6.72,-13.01 1.47,-5.46 2.2,-12.38 2.2,-20.78l0 -35.46zm-25.81 22.87l0 16.79c0,3.64 -1.85,6.64 -5.56,9.02 -3.71,2.38 -8.08,3.57 -13.12,3.57l-19.3 0c-1.82,0 -3.78,-0.17 -5.88,-0.53 -2.1,-0.35 -4.06,-1.05 -5.87,-2.1 -1.82,-1.05 -3.32,-2.48 -4.51,-4.3 -1.19,-1.82 -1.78,-4.13 -1.78,-6.92l0 -33.58c0,-1.96 0.49,-3.64 1.47,-5.04 0.98,-1.4 2.2,-2.52 3.67,-3.36 1.47,-0.84 3.11,-1.43 4.93,-1.78 1.82,-0.35 3.64,-0.52 5.46,-0.52l22.87 0c2.1,0 4.2,0.21 6.29,0.63 2.1,0.42 3.99,1.08 5.67,1.99 1.68,0.91 3.04,2.03 4.09,3.36 1.05,1.33 1.57,2.83 1.57,4.51l0 18.26zm64.55 -25.81c0,-1.26 0.66,-2.45 1.99,-3.57 1.33,-1.12 2.76,-1.68 4.3,-1.68l20.36 0c2.94,0 5.66,0.24 8.18,0.74 2.52,0.49 4.72,1.36 6.61,2.62 1.89,1.26 3.36,3.01 4.41,5.25 1.05,2.24 1.57,5.11 1.57,8.6l0 66.73c0,1.4 0.7,2.1 2.1,2.1l21.19 0c1.54,0 2.31,-0.7 2.31,-2.1l0 -71.14c0,-4.62 -0.91,-9.09 -2.73,-13.43 -1.82,-4.34 -4.37,-8.18 -7.66,-11.54 -3.29,-3.36 -7.1,-6.05 -11.44,-8.08 -4.34,-2.03 -9.02,-3.04 -14.06,-3.04l-47.42 0c-4.48,0 -8.15,1.43 -11.02,4.3 -2.87,2.87 -4.3,6.05 -4.3,9.55l0 87.08c0,2.24 0.45,4.2 1.36,5.87 0.91,1.68 2.34,2.52 4.3,2.52l14.06 0c3.92,0 5.88,-2.24 5.88,-6.72l0 -74.07zm123.73 -30.64c0,1.4 0.7,2.1 2.1,2.1l17.21 0c1.4,0 2.1,0.7 2.1,2.1l0 21.4c0,1.4 -0.7,2.1 -2.1,2.1l-17.21 0c-1.4,0 -2.1,0.7 -2.1,2.1l0 79.53c0,1.4 -0.7,2.1 -2.1,2.1l-21.4 0c-1.4,0 -2.1,-0.7 -2.1,-2.1l0 -79.53c0,-1.4 -0.7,-2.1 -2.1,-2.1l-11.12 0c-1.4,0 -2.1,-0.7 -2.1,-2.1l0 -21.4c0,-1.4 0.7,-2.1 2.1,-2.1l11.12 0c1.4,0 2.1,-0.7 2.1,-2.1l0 -13.22c0,-3.08 0.73,-6.19 2.2,-9.34 1.47,-3.15 3.36,-5.91 5.66,-8.29 2.31,-2.38 4.9,-4.34 7.76,-5.87 2.87,-1.54 5.7,-2.31 8.5,-2.31l30.01 0c1.4,0 2.1,0.7 2.1,2.1l0 21.4c0,1.4 -0.56,2.1 -1.68,2.1l-20.57 0c-0.7,0 -1.54,0.32 -2.52,0.94 -0.98,0.63 -1.89,1.4 -2.73,2.31 -0.84,0.91 -1.57,1.89 -2.2,2.94 -0.63,1.05 -0.95,1.99 -0.95,2.83l0 4.41zm53.43 69.04l77.64 0c1.4,0 2.1,-0.7 2.1,-2.1l0 -21.82c0,-6.58 -0.94,-12.52 -2.83,-17.84 -1.89,-5.32 -4.86,-9.83 -8.92,-13.54 -4.06,-3.71 -9.23,-6.57 -15.53,-8.6 -6.3,-2.03 -13.78,-3.04 -22.45,-3.04 -6.99,0 -13.95,0.87 -20.88,2.62 -6.93,1.75 -13.15,4.79 -18.67,9.13 -5.53,4.34 -10,10.18 -13.43,17.52 -3.43,7.35 -5.14,16.61 -5.14,27.8 0,9.23 1.01,17.14 3.04,23.71 2.03,6.58 5.46,12 10.28,16.26 4.83,4.27 11.19,7.38 19.09,9.34 7.9,1.96 17.77,3.14 29.52,3.1l65.71 -0.17 -0.03 -25.77 -80.19 0.17c-2.94,0.01 -5.74,-0.38 -8.39,-1.15 -2.66,-0.77 -4.93,-1.82 -6.82,-3.15 -1.89,-1.33 -3.39,-2.87 -4.51,-4.62 -1.12,-1.75 -1.68,-3.67 -1.68,-5.77 0,-1.4 0.7,-2.1 2.1,-2.1zm0 -24.55c-1.4,0 -2.1,-0.7 -2.1,-2.1 0,-2.66 1.05,-5.07 3.15,-7.24 2.1,-2.17 4.72,-3.99 7.87,-5.46 3.15,-1.47 6.44,-2.62 9.86,-3.46 3.43,-0.84 6.54,-1.26 9.34,-1.26 8.81,0 15.67,1.57 20.56,4.72 4.9,3.15 7.34,7.38 7.34,12.7 0,1.4 -0.7,2.1 -2.1,2.1l-53.93 0zm120.16 -42.39c-3.78,0 -7.34,0.74 -10.7,2.2 -3.36,1.47 -6.29,3.46 -8.81,5.98 -2.52,2.52 -4.51,5.46 -5.98,8.81 -1.47,3.36 -2.2,6.85 -2.2,10.49l0 79.74c0,1.4 0.7,2.1 2.1,2.1l23.5 0c1.4,0 2.1,-0.7 2.1,-2.1l0 -72.4c0,-0.84 0.21,-1.78 0.63,-2.83 0.42,-1.05 1.01,-2.03 1.78,-2.94 0.77,-0.91 1.64,-1.71 2.62,-2.41 0.98,-0.7 2.1,-1.05 3.36,-1.05l20.15 0c1.4,0 2.1,-0.7 2.1,-2.1l0 -21.4c0,-1.4 -0.7,-2.1 -2.1,-2.1l-28.54 0zm62.45 66.94l77.64 0c1.4,0 2.1,-0.7 2.1,-2.1l0 -21.82c0,-6.58 -0.94,-12.52 -2.83,-17.84 -1.89,-5.32 -4.86,-9.83 -8.92,-13.54 -4.06,-3.71 -9.23,-6.57 -15.53,-8.6 -6.29,-2.03 -13.78,-3.04 -22.45,-3.04 -6.99,0 -13.96,0.87 -20.88,2.62 -6.93,1.75 -13.15,4.79 -18.68,9.13 -5.53,4.34 -10,10.18 -13.43,17.52 -3.43,7.35 -5.14,16.61 -5.14,27.8 0,9.23 1.01,17.14 3.04,23.71 2.03,6.58 5.45,12 10.28,16.26 4.83,4.27 11.19,7.38 19.1,9.34 7.9,1.96 17.76,3.07 29.51,3.05l74.85 -0.13 -0.03 -25.71 -89.33 0.13c-2.94,0 -5.74,-0.38 -8.39,-1.15 -2.66,-0.77 -4.93,-1.82 -6.82,-3.15 -1.89,-1.33 -3.39,-2.87 -4.51,-4.62 -1.12,-1.75 -1.68,-3.67 -1.68,-5.77 0,-1.4 0.7,-2.1 2.1,-2.1zm0 -24.55c-1.4,0 -2.1,-0.7 -2.1,-2.1 0,-2.66 1.05,-5.07 3.15,-7.24 2.1,-2.17 4.72,-3.99 7.87,-5.46 3.15,-1.47 6.43,-2.62 9.86,-3.46 3.43,-0.84 6.54,-1.26 9.34,-1.26 8.81,0 15.67,1.57 20.56,4.72 4.9,3.15 7.35,7.38 7.35,12.7 0,1.4 -0.7,2.1 -2.1,2.1l-53.93 0zm118.69 -13.85c0,-1.26 0.66,-2.45 1.99,-3.57 1.33,-1.12 2.76,-1.68 4.3,-1.68l20.35 0c2.94,0 5.67,0.24 8.19,0.74 2.52,0.49 4.72,1.36 6.61,2.62 1.89,1.26 3.36,3.01 4.41,5.25 1.05,2.24 1.57,5.11 1.57,8.6l0 66.73c0,1.4 0.7,2.1 2.1,2.1l21.2 0c1.54,0 2.31,-0.7 2.31,-2.1l0 -71.14c0,-4.62 -0.91,-9.09 -2.73,-13.43 -1.82,-4.34 -4.37,-8.18 -7.66,-11.54 -3.29,-3.36 -7.1,-6.05 -11.44,-8.08 -4.34,-2.03 -9.02,-3.04 -14.06,-3.04l-47.42 0c-4.48,0 -8.15,1.43 -11.02,4.3 -2.87,2.87 -4.3,6.05 -4.3,9.55l0 87.08c0,2.24 0.45,4.2 1.37,5.87 0.91,1.68 2.34,2.52 4.3,2.52l14.06 0c3.92,0 5.88,-2.24 5.88,-6.72l0 -74.07zm134.01 55.19c-8.39,0 -14.51,-2.2 -18.36,-6.61 -3.85,-4.41 -5.77,-10.11 -5.77,-17.1l0 -9.02c0,-7.14 1.99,-13.15 5.98,-18.05 3.99,-4.9 10.04,-7.34 18.15,-7.34l39.66 0c1.4,0 2.1,-0.7 2.1,-2.1l0 -21.4c0,-1.4 -0.7,-2.1 -2.1,-2.1l-35.46 0c-9.23,0 -17.21,1.08 -23.92,3.25 -6.72,2.17 -12.21,5.25 -16.47,9.23 -4.27,3.99 -7.41,8.81 -9.44,14.48 -2.03,5.66 -3.04,12.06 -3.04,19.2l0 17.63c0,5.32 1.12,10.67 3.36,16.05 2.24,5.39 5.45,10.28 9.65,14.69 4.2,4.41 9.3,7.97 15.32,10.7 6.02,2.73 12.87,4.09 20.57,4.09l39.45 0c1.4,0 2.1,-0.7 2.1,-2.1l0 -21.4c0,-1.4 -0.7,-2.1 -2.1,-2.1l-39.66 0zm79.45 -16.79l77.64 0c1.4,0 2.1,-0.7 2.1,-2.1l0 -21.82c0,-6.58 -0.95,-12.52 -2.83,-17.84 -1.89,-5.32 -4.86,-9.83 -8.92,-13.54 -4.06,-3.71 -9.23,-6.57 -15.53,-8.6 -6.29,-2.03 -13.78,-3.04 -22.45,-3.04 -6.99,0 -13.95,0.87 -20.88,2.62 -6.93,1.75 -13.15,4.79 -18.68,9.13 -5.53,4.34 -10,10.18 -13.43,17.52 -3.43,7.35 -5.14,16.61 -5.14,27.8 0,9.23 1.01,17.14 3.04,23.71 2.03,6.58 5.45,12 10.28,16.26 4.83,4.27 11.19,7.38 19.1,9.34 7.9,1.96 17.73,2.94 29.48,2.94l35.46 0c1.4,0 2.1,-0.7 2.1,-2.1l0 -21.4c0,-1.4 -0.7,-2.1 -2.1,-2.1l-49.94 0c-2.94,0 -5.74,-0.38 -8.39,-1.15 -2.66,-0.77 -4.93,-1.82 -6.82,-3.15 -1.89,-1.33 -3.39,-2.87 -4.51,-4.62 -1.12,-1.75 -1.68,-3.67 -1.68,-5.77 0,-1.4 0.7,-2.1 2.1,-2.1zm0 -24.55c-1.4,0 -2.1,-0.7 -2.1,-2.1 0,-2.66 1.05,-5.07 3.15,-7.24 2.1,-2.17 4.72,-3.99 7.87,-5.46 3.15,-1.47 6.43,-2.62 9.86,-3.46 3.43,-0.84 6.54,-1.26 9.34,-1.26 8.81,0 15.67,1.57 20.57,4.72 4.9,3.15 7.34,7.38 7.34,12.7 0,1.4 -0.7,2.1 -2.1,2.1l-53.93 0z"/>
 </g>
</svg>
